<svg width="44" height="56" viewBox="0 0 44 56" fill="none" xmlns="http://www.w3.org/2000/svg">
<path d="M22 0C16.1652 0 10.5695 2.31785 6.44365 6.44365C2.31785 10.5695 0 16.1652 0 22C0 27.203 1.1055 30.6075 4.125 34.375L22 56L39.875 34.375C42.8945 30.6075 44 27.203 44 22C44 16.1652 41.6822 10.5695 37.5564 6.44365C33.4306 2.31785 27.8348 0 22 0Z" fill="url(#paint0_linear_303_6827)"/>
<path d="M27.3131 25.5202C30.6351 25.0061 32.5 22.7783 32.5 22.7783C32.5 22.7783 29.7506 23.8636 28.3622 21.293C26.295 17.4657 25.1374 15.9806 21.9903 19.4651C18.8432 15.9806 17.705 17.4657 15.6378 21.293C14.2494 23.8636 11.5 22.7783 11.5 22.7783C11.5 22.7783 13.3649 25.0061 16.6869 25.5202C20.0088 26.0343 21.9903 22.4355 21.9903 22.4355C21.9903 22.4355 23.9912 26.0343 27.3131 25.5202Z" stroke="white" stroke-width="1.5"/>
<defs>
<linearGradient id="paint0_linear_303_6827" x1="0" y1="0" x2="54.4101" y2="42.7508" gradientUnits="userSpaceOnUse">
<stop stop-color="#CF50C2"/>
<stop offset="1" stop-color="#AE43A3"/>
</linearGradient>
</defs>
</svg>
