<svg width="44" height="56" viewBox="0 0 44 56" fill="none" xmlns="http://www.w3.org/2000/svg">
<path d="M22 0C16.1652 0 10.5695 2.31785 6.44365 6.44365C2.31785 10.5695 0 16.1652 0 22C0 27.203 1.1055 30.6075 4.125 34.375L22 56L39.875 34.375C42.8945 30.6075 44 27.203 44 22C44 16.1652 41.6822 10.5695 37.5564 6.44365C33.4306 2.31785 27.8348 0 22 0Z" fill="url(#paint0_linear_303_6824)"/>
<path d="M12 29V19C12 17.8954 12.8954 17 14 17H14.5C15.1295 17 15.7223 16.7036 16.1 16.2L18.32 13.24C18.4333 13.0889 18.6112 13 18.8 13H25.2C25.3889 13 25.5667 13.0889 25.68 13.24L27.9 16.2C28.2777 16.7036 28.8705 17 29.5 17H30C31.1046 17 32 17.8954 32 19V29C32 30.1046 31.1046 31 30 31H14C12.8954 31 12 30.1046 12 29Z" stroke="white" stroke-width="1.5" stroke-linecap="round" stroke-linejoin="round"/>
<path d="M22 27C24.2091 27 26 25.2091 26 23C26 20.7909 24.2091 19 22 19C19.7909 19 18 20.7909 18 23C18 25.2091 19.7909 27 22 27Z" stroke="white" stroke-width="1.5" stroke-linecap="round" stroke-linejoin="round"/>
<defs>
<linearGradient id="paint0_linear_303_6824" x1="0" y1="0" x2="54.4101" y2="42.7508" gradientUnits="userSpaceOnUse">
<stop stop-color="#56CCF2"/>
<stop offset="1" stop-color="#48ABCB"/>
</linearGradient>
</defs>
</svg>
