<svg width="44" height="56" viewBox="0 0 44 56" fill="none" xmlns="http://www.w3.org/2000/svg">
<path d="M22 0C16.1652 0 10.5695 2.31785 6.44365 6.44365C2.31785 10.5695 0 16.1652 0 22C0 27.203 1.1055 30.6075 4.125 34.375L22 56L39.875 34.375C42.8945 30.6075 44 27.203 44 22C44 16.1652 41.6822 10.5695 37.5564 6.44365C33.4306 2.31785 27.8348 0 22 0Z" fill="url(#paint0_linear_303_6828)"/>
<path d="M25.8043 20.663L27.3147 20.0406C28.6866 19.4752 30.1318 19.1072 31.607 18.9475L32.8238 18.8158C34.0887 25.35 28.6462 31.3345 21.9991 31H22.0005C15.3534 31.3345 9.89559 25.35 11.1604 18.8158L12.381 18.9475C13.8562 19.1072 15.3014 19.4752 16.6733 20.0406L18.1837 20.663M24.857 17.2488C25.7136 16.3923 26.7027 15.6794 27.7862 15.1377L27.8116 15.1249L28.2688 16.1711C28.5789 16.7631 28.8005 17.3974 28.9265 18.0538L29.2033 19.4957M19.131 17.2488C18.2744 16.3923 17.2853 15.6794 16.2018 15.1377L16.1764 15.1249L15.7192 16.1711C15.4091 16.7631 15.1875 17.3974 15.0615 18.0538L14.7847 19.4957M21.994 13L23.5995 15.156C26.5007 19.0519 26.5788 24.3686 23.7932 28.348L22.0005 30.5L20.1948 28.348C17.4092 24.3686 17.4873 19.0519 20.3885 15.156L21.994 13Z" stroke="white" stroke-width="1.5"/>
<defs>
<linearGradient id="paint0_linear_303_6828" x1="0" y1="0" x2="54.4101" y2="42.7508" gradientUnits="userSpaceOnUse">
<stop stop-color="#77D0A8"/>
<stop offset="1" stop-color="#64AF8D"/>
</linearGradient>
</defs>
</svg>
