<svg width="102" height="102" viewBox="0 0 102 102" fill="none" xmlns="http://www.w3.org/2000/svg">
<path d="M98 51C98 76.9574 76.9574 98 51 98C25.0426 98 4 76.9574 4 51C4 25.0426 25.0426 4 51 4C76.9574 4 98 25.0426 98 51Z" stroke="url(#paint0_linear_306_7087)" stroke-width="8" stroke-linecap="round" stroke-linejoin="round"/>
<path d="M51 91C73.0914 91 91 73.0914 91 51C91 28.9086 73.0914 11 51 11C28.9086 11 11 28.9086 11 51C11 73.0914 28.9086 91 51 91Z" fill="url(#paint1_linear_306_7087)"/>
<defs>
<linearGradient id="paint0_linear_306_7087" x1="0" y1="0" x2="102" y2="102" gradientUnits="userSpaceOnUse">
<stop stop-color="#EB5757"/>
<stop offset="1" stop-color="#C54949"/>
</linearGradient>
<linearGradient id="paint1_linear_306_7087" x1="11" y1="11" x2="91" y2="91" gradientUnits="userSpaceOnUse">
<stop stop-color="#EB5757"/>
<stop offset="1" stop-color="#C54949"/>
</linearGradient>
</defs>
</svg>
