<svg width="44" height="56" viewBox="0 0 44 56" fill="none" xmlns="http://www.w3.org/2000/svg">
<path d="M22 0C16.1652 0 10.5695 2.31785 6.44365 6.44365C2.31785 10.5695 0 16.1652 0 22C0 27.203 1.1055 30.6075 4.125 34.375L22 56L39.875 34.375C42.8945 30.6075 44 27.203 44 22C44 16.1652 41.6822 10.5695 37.5564 6.44365C33.4306 2.31785 27.8348 0 22 0Z" fill="url(#paint0_linear_303_6825)"/>
<path d="M17.4 17H14.6C14.2686 17 14 17.2686 14 17.6V26.4C14 26.7314 14.2686 27 14.6 27H17.4C17.7314 27 18 26.7314 18 26.4V17.6C18 17.2686 17.7314 17 17.4 17Z" stroke="white" stroke-width="1.5" stroke-linecap="round" stroke-linejoin="round"/>
<path d="M29.4 17H26.6C26.2686 17 26 17.2686 26 17.6V26.4C26 26.7314 26.2686 27 26.6 27H29.4C29.7314 27 30 26.7314 30 26.4V17.6C30 17.2686 29.7314 17 29.4 17Z" stroke="white" stroke-width="1.5" stroke-linecap="round" stroke-linejoin="round"/>
<path d="M11 24.4V19.6C11 19.2686 11.2686 19 11.6 19H13.4C13.7314 19 14 19.2686 14 19.6V24.4C14 24.7314 13.7314 25 13.4 25H11.6C11.2686 25 11 24.7314 11 24.4Z" stroke="white" stroke-width="1.5" stroke-linecap="round" stroke-linejoin="round"/>
<path d="M33 24.4V19.6C33 19.2686 32.7314 19 32.4 19H30.6C30.2686 19 30 19.2686 30 19.6V24.4C30 24.7314 30.2686 25 30.6 25H32.4C32.7314 25 33 24.7314 33 24.4Z" stroke="white" stroke-width="1.5" stroke-linecap="round" stroke-linejoin="round"/>
<path d="M18 22H26" stroke="white" stroke-width="1.5" stroke-linecap="round" stroke-linejoin="round"/>
<defs>
<linearGradient id="paint0_linear_303_6825" x1="0" y1="0" x2="54.4101" y2="42.7508" gradientUnits="userSpaceOnUse">
<stop stop-color="#EB5757"/>
<stop offset="1" stop-color="#C54949"/>
</linearGradient>
</defs>
</svg>
